<svg role="img" xmlns="http://www.w3.org/2000/svg" viewBox="0 0 24 24" fill="#0A66C2">
  <title>LinkedIn</title>
  <path d="M22.23 0H1.77C.79 0 0 .77 0 1.73v20.54C0 23.24.79 24 1.77 24h20.46C23.21 24 24 23.24 24 22.27V1.73C24 .77 23.21 0 22.23 0zM7.12 20.46H3.56V9h3.56v11.46zM5.34 7.63c-1.14 0-2.07-.94-2.07-2.1S4.2 3.42 5.34 3.42c1.14 0 2.07.94 2.07 2.1s-.93 2.1-2.07 2.1zM20.45 20.46h-3.56v-5.47c0-1.31-.47-2.2-1.64-2.2-.89 0-1.42.6-1.65 1.18-.08.22-.1.51-.1.81v5.68H10v-11.46h3.55v1.57h.05c.49-.77 1.36-1.86 3.31-1.86 2.42 0 4.24 1.58 4.24 4.97v6.78z"/>
</svg>
